<svg xmlns="http://www.w3.org/2000/svg" viewBox="0 0 320 320" role="img" aria-label="QR placeholder">
  <rect width="320" height="320" fill="#fbf7f0"/>
  <rect x="28" y="28" width="80" height="80" fill="none" stroke="#1c1712" stroke-width="14"/>
  <rect x="212" y="28" width="80" height="80" fill="none" stroke="#1c1712" stroke-width="14"/>
  <rect x="28" y="212" width="80" height="80" fill="none" stroke="#1c1712" stroke-width="14"/>
  <g fill="#1c1712">
    <rect x="52" y="52" width="32" height="32"/><rect x="236" y="52" width="32" height="32"/><rect x="52" y="236" width="32" height="32"/>
    <rect x="142" y="36" width="18" height="64"/><rect x="172" y="66" width="18" height="34"/><rect x="128" y="128" width="24" height="24"/>
    <rect x="166" y="128" width="24" height="60"/><rect x="204" y="128" width="18" height="22"/><rect x="242" y="138" width="32" height="18"/>
    <rect x="128" y="204" width="18" height="64"/><rect x="164" y="224" width="64" height="18"/><rect x="240" y="206" width="28" height="28"/><rect x="270" y="260" width="18" height="28"/>
  </g>
  <text x="160" y="302" text-anchor="middle" font-family="Arial, sans-serif" font-size="12" fill="#1c1712">Replace with generated QR</text>
</svg>
